<?xml version="1.0" encoding="utf-8"?>
<!-- Generator: Adobe Illustrator 16.0.0, SVG Export Plug-In . SVG Version: 6.00 Build 0)  -->
<!DOCTYPE svg PUBLIC "-//W3C//DTD SVG 1.1//EN" "http://www.w3.org/Graphics/SVG/1.1/DTD/svg11.dtd">
<svg version="1.1" id="Layer_1" xmlns="http://www.w3.org/2000/svg" xmlns:xlink="http://www.w3.org/1999/xlink" x="0px" y="0px"
	 width="262.531px" height="52.392px" viewBox="0 0 262.531 52.392" enable-background="new 0 0 262.531 52.392"
	 xml:space="preserve">
<g>
	<path fill="#FFFFFF" d="M14.277,26.342V51.8c-4.588,0-9.177,0-13.691,0V-0.226h4.811L31.595,25.38V-0.004c4.514,0,9.028,0,13.543,0
		v51.878h-4.736L14.277,26.342z"/>
	<path fill="#FFFFFF" d="M87.316,45.287H66.891L63.856,51.8H50.906v-1.924L74.217-0.67h5.698l23.386,50.545V51.8H90.35
		L87.316,45.287z M77.029,20.348l-5.846,13.617h11.841L77.029,20.348z"/>
	<path fill="#FFFFFF" d="M100.633,11.837c0-3.996,0-7.918,0-11.841h38.483c0,3.922,0,7.845,0,11.841h-12.655V51.8
		c-4.367,0-8.733,0-13.099,0V11.837H100.633z"/>
	<path fill="#FFFFFF" d="M168.419,40.181V51.8h-26.272V40.181h6.587v-28.64h-6.069V-0.004h25.236v11.545h-6.068v28.64H168.419z"/>
	<path fill="#FFFFFF" d="M197.203,29.302h0.37l11.841-29.306h12.729v1.998l-21.979,50.397h-5.624L172.337,1.994v-1.998h12.729
		L197.203,29.302z"/>
	<path fill="#FFFFFF" d="M261.879,11.837c-7.695,0-11.543,0-19.167,0v7.327h17.614c0,3.922,0,7.845,0,11.767h-17.614
		c0,3.034,0,5.995,0,9.103c7.623,0,12.063,0,19.833,0c0,3.848,0,7.844,0,11.767c-12.136,0-21.016,0-33.005,0
		c0-17.317,0-34.634,0-51.804c11.989,0,20.203,0,32.339,0C261.879,3.845,261.879,7.841,261.879,11.837z"/>
</g>
</svg>
