<?xml version="1.0" encoding="utf-8"?>
<!-- Generator: Adobe Illustrator 16.0.0, SVG Export Plug-In . SVG Version: 6.00 Build 0)  -->
<!DOCTYPE svg PUBLIC "-//W3C//DTD SVG 1.1//EN" "http://www.w3.org/Graphics/SVG/1.1/DTD/svg11.dtd">
<svg version="1.1" id="Layer_1" xmlns:sketch="http://www.bohemiancoding.com/sketch/ns"
	 xmlns="http://www.w3.org/2000/svg" xmlns:xlink="http://www.w3.org/1999/xlink" x="0px" y="0px" width="202px" height="48.766px"
	 viewBox="0 0 202 48.766" enable-background="new 0 0 202 48.766" xml:space="preserve">
<title>logo</title>
<path sketch:type="MSShapeGroup" d="M-10.655,46.178"/>
<path fill="none" d="M22.836,1c9.946,0,24.589,30.808,19.893,40.328c-4.695,9.52-34.701,10.308-39.786,0
	C-2.142,31.021,12.889,1,22.836,1z"/>
<path fill="#D0011B" d="M22.836,1C12.89,1-2.141,31.021,2.943,41.328c5.084,10.307,35.09,9.52,39.786,0
	C47.425,31.808,32.782,1,22.836,1z M26.466,38.961v-1.996c0-2.02-1.559-3.659-3.472-3.659c-1.918,0-3.472,1.639-3.472,3.659v2.383
	c-2.071-1.703-3.473-4.808-3.473-7.482c0-2.064,0.836-3.459,2.17-4.318v-0.713c0-11.189,4.557-16.416,4.557-16.416
	s4.558,5.227,4.558,16.416v0.713c1.334,0.858,2.17,2.253,2.17,4.318C29.505,34.348,28.296,37.203,26.466,38.961L26.466,38.961z"/>
<path sketch:type="MSShapeGroup" fill="#FFFFFF" d="M59.272,33.193c0,0.962,0.763,1.725,1.752,1.725
	c0.961,0,1.724-0.763,1.724-1.725V16.579c0-0.961-0.763-1.724-1.724-1.724c-0.989,0-1.752,0.763-1.752,1.724V33.193z M84.141,35.115
	c2.967,0,5.34-1.018,7.035-2.147c0.82-0.509,1.216-1.215,1.216-2.204V25.48c0-0.989-0.763-1.752-1.753-1.752h-5.51
	c-0.848,0-1.554,0.678-1.554,1.525s0.706,1.498,1.554,1.498h3.899v3.702c-1.215,0.903-2.91,1.498-4.774,1.498
	c-4.041,0-6.726-2.995-6.726-7.063v-0.058c0-3.786,2.769-6.979,6.414-6.979c2.147,0,3.532,0.623,4.804,1.555
	c0.283,0.197,0.623,0.396,1.074,0.396c0.961,0,1.725-0.791,1.725-1.725c0-0.678-0.367-1.159-0.707-1.413
	c-1.808-1.3-3.785-2.006-6.752-2.006c-5.963,0-10.201,4.69-10.201,10.229v0.057C73.883,30.707,77.953,35.115,84.141,35.115
	L84.141,35.115z M103.641,33.223c0,0.932,0.763,1.694,1.724,1.694c0.933,0,1.695-0.763,1.695-1.694V20.676l10.172,13.168
	c0.479,0.622,0.989,1.045,1.808,1.045h0.141c0.962,0,1.695-0.763,1.695-1.724V16.55c0-0.932-0.763-1.694-1.724-1.694
	c-0.933,0-1.694,0.763-1.694,1.694V28.7l-9.891-12.8c-0.48-0.594-0.961-1.018-1.809-1.018h-0.366c-0.989,0-1.753,0.791-1.753,1.752
	v16.588H103.641z M132.889,33.193c0,0.962,0.762,1.725,1.752,1.725c0.961,0,1.723-0.763,1.723-1.725V16.579
	c0-0.961-0.762-1.724-1.723-1.724c-0.99,0-1.752,0.763-1.752,1.724V33.193z M153.234,33.193c0,0.962,0.791,1.725,1.752,1.725
	s1.752-0.763,1.752-1.725V18.218h4.832c0.877,0,1.582-0.735,1.582-1.61c0-0.877-0.705-1.611-1.582-1.611h-13.139
	c-0.904,0-1.611,0.734-1.611,1.611c0,0.875,0.707,1.61,1.611,1.61h4.805L153.234,33.193z M175.166,34.775h11.641
	c0.848,0,1.555-0.678,1.555-1.553c0-0.849-0.707-1.555-1.555-1.555h-9.918v-5.312h8.506c0.848,0,1.553-0.678,1.553-1.525
	c0-0.876-0.705-1.582-1.553-1.582h-8.506v-5.143h9.777c0.848,0,1.555-0.678,1.555-1.555c0-0.848-0.707-1.554-1.555-1.554h-11.5
	c-0.988,0-1.752,0.763-1.752,1.752v16.276C173.414,34.014,174.176,34.775,175.166,34.775L175.166,34.775z"/>
<path sketch:type="MSShapeGroup" fill="#FFFFFF" d="M193.447,11.391c0,0.172,0.141,0.312,0.312,0.312
	c0.182,0,0.322-0.14,0.322-0.312V8.914h0.797c0.15,0,0.279-0.141,0.279-0.291c0-0.161-0.129-0.291-0.279-0.291h-2.229
	c-0.15,0-0.279,0.129-0.279,0.291c0,0.15,0.129,0.291,0.279,0.291h0.797V11.391L193.447,11.391z M195.814,11.4
	c0,0.173,0.141,0.302,0.312,0.302c0.162,0,0.301-0.129,0.301-0.302V9.475l0.787,1.194c0.074,0.108,0.15,0.161,0.268,0.161
	c0.129,0,0.205-0.064,0.27-0.161l0.787-1.206V11.4c0,0.173,0.139,0.302,0.301,0.302c0.172,0,0.311-0.129,0.311-0.302V8.613
	c0-0.172-0.139-0.312-0.301-0.312h-0.074c-0.129,0-0.215,0.055-0.279,0.161l-1.014,1.593l-0.99-1.593
	c-0.053-0.086-0.15-0.161-0.291-0.161h-0.074c-0.172,0-0.312,0.141-0.312,0.312V11.4L195.814,11.4z"/>
</svg>
